# xmcd
#
# Track frame offsets: 
#        150
#        19577
#        50952
#        74037
#        93187
#        111572
#        141525
#        158507
#        177662
#        210755
#        244587
#
# Disc length: 3425 seconds
#
# Revision: 2
# Processed by: cddbd v1.5.2PL0 Copyright (c) Steve Scherf et al.
# Submitted via: ExactAudioCopy v1.0b3
#
DISCID=9f0d5f0b
DTITLE=Gregor Hilden - Golden Voice Blues
DYEAR=2006
DGENRE=Blues
TTITLE0=Shufflin´
TTITLE1=Golden Voice Blues
TTITLE2=Off Beatin´
TTITLE3=Smack Bertha´s Shuffle
TTITLE4=Late Rent Shuffle
TTITLE5=Mature Blues
TTITLE6=Baritone Boogaloo
TTITLE7=Jammin´
TTITLE8=Sweet ´n´Sour
TTITLE9=Earth Blues
TTITLE10=Greg´s Boogie
EXTD=
EXTT0=
EXTT1=
EXTT2=
EXTT3=
EXTT4=
EXTT5=
EXTT6=
EXTT7=
EXTT8=
EXTT9=
EXTT10=
PLAYORDER=
